# xmcd
#
# Track frame offsets: 
#        150
#        17962
#        37837
#        55462
#
# Disc length: 1002 seconds
#
# Revision: 1
# Processed by: cddbd v1.5.2PL0 Copyright (c) Steve Scherf et al.
# Submitted via: ExactAudioCopy v1.3
#
DISCID=2c03e804
DTITLE=竹内まりや - 本気でオンリーユー (Let's Get Married)
DYEAR=1994
DGENRE=JPop
TTITLE0=本気でオンリーユー(Let's Get Married)
TTITLE1=Forever Friends
TTITLE2=本気でオンリーユー(Let's Get Married) (オリジナル・カラオケ)
TTITLE3=Forever Friends (オリジナル・カラオケ)
EXTD=YEAR: 1994
EXTT0=
EXTT1=
EXTT2=
EXTT3=
PLAYORDER=
